<?xml version="1.0" standalone="no"?>
<!DOCTYPE svg PUBLIC "-//W3C//DTD SVG 20010904//EN"
 "http://www.w3.org/TR/2001/REC-SVG-20010904/DTD/svg10.dtd">
<svg version="1.0" xmlns="http://www.w3.org/2000/svg"
 width="16.000000pt" height="16.000000pt" viewBox="0 0 16.000000 16.000000"
 preserveAspectRatio="xMidYMid meet">
<metadata>
Created by potrace 1.11, written by Peter Selinger 2001-2013
</metadata>
<g transform="translate(0.000000,16.000000) scale(0.000882,-0.000882)"
fill="#000000" stroke="none">
<path d="M3820 16454 c-336 -19 -455 -35 -686 -94 -1289 -329 -2086 -1149
-2344 -2410 -77 -376 -95 -590 -94 -1100 0 -435 7 -533 64 -995 143 -1135 461
-3068 571 -3465 39 -140 89 -211 162 -231 56 -15 85 0 165 86 133 143 233 301
546 863 108 194 196 362 196 375 0 12 -50 339 -110 727 -191 1217 -245 1621
-300 2215 -46 506 -55 697 -55 1160 1 690 36 895 222 1273 204 416 413 682
666 849 104 69 414 232 547 288 144 61 403 111 655 126 211 13 1359 5 1585
-11 381 -27 638 -78 1094 -215 1499 -451 2886 -1272 4371 -2585 684 -605 1526
-1449 2286 -2290 1520 -1684 2883 -3520 3443 -4639 272 -543 360 -853 360
-1281 1 -340 -48 -567 -180 -835 -77 -157 -131 -231 -263 -357 -187 -180 -486
-335 -936 -483 -439 -145 -770 -209 -1430 -274 -578 -58 -1288 -66 -4110 -52
-2479 14 -4014 34 -4660 61 -188 8 -600 52 -613 65 -3 3 106 84 178 132 25 16
106 65 180 108 637 368 1127 855 1591 1580 264 411 533 949 721 1435 207 537
342 995 614 2090 203 818 295 1155 414 1510 259 777 535 1291 954 1775 38 44
158 175 267 290 226 241 272 294 301 349 l20 40 -23 19 c-21 17 -34 19 -104
13 -241 -20 -563 -169 -915 -423 -684 -495 -1274 -1198 -1593 -1899 -208 -455
-422 -1144 -697 -2244 -310 -1240 -512 -1922 -735 -2485 -271 -684 -538 -1124
-967 -1593 -308 -336 -518 -484 -831 -587 -241 -78 -477 -117 -1142 -185
-1078 -111 -1567 -194 -1977 -336 -463 -161 -780 -343 -1010 -582 -156 -162
-217 -289 -218 -454 0 -56 4 -72 21 -89 19 -19 29 -21 82 -15 34 3 120 22 192
40 252 67 410 88 840 110 821 44 2946 72 7290 96 2670 15 3422 33 4430 106
806 58 1162 122 1770 320 612 200 1197 478 1703 811 139 91 455 323 467 343 3
5 12 7 19 4 20 -8 147 107 339 308 162 168 197 210 373 445 316 420 518 875
569 1278 9 66 22 163 31 215 17 110 18 198 3 255 -6 22 -19 96 -30 165 -90
581 -362 1211 -882 2040 -210 334 -526 800 -762 1125 -56 77 -114 163 -128
191 -14 28 -56 84 -94 125 -82 89 -169 198 -208 259 -15 24 -49 67 -75 95 -96
104 -200 234 -200 251 0 9 -49 67 -108 128 -118 121 -312 337 -437 485 -194
231 -944 981 -1082 1082 -32 24 -150 126 -263 229 -821 745 -1798 1517 -2550
2014 -1349 893 -2645 1501 -4090 1920 -287 83 -672 179 -820 205 -261 47 -714
90 -1215 116 -267 14 -1214 27 -1365 19z"/>
</g>
</svg>
