<?xml version="1.0" encoding="UTF-8" standalone="no"?>
<!-- Generator: Adobe Illustrator 19.2.1, SVG Export Plug-In . SVG Version: 6.00 Build 0)  -->

<svg
   xmlns:dc="http://purl.org/dc/elements/1.1/"
   xmlns:cc="http://creativecommons.org/ns#"
   xmlns:rdf="http://www.w3.org/1999/02/22-rdf-syntax-ns#"
   xmlns:svg="http://www.w3.org/2000/svg"
   xmlns="http://www.w3.org/2000/svg"
   xmlns:sodipodi="http://sodipodi.sourceforge.net/DTD/sodipodi-0.dtd"
   xmlns:inkscape="http://www.inkscape.org/namespaces/inkscape"
   version="1.1"
   id="Warstwa_1"
   x="0px"
   y="0px"
   viewBox="0 0 512 512"
   style="enable-background:new 0 0 512 512;"
   xml:space="preserve"
   sodipodi:docname="derm-syringe.svg"
   inkscape:version="0.92.0 r15299"><metadata
     id="metadata40"><rdf:RDF><cc:Work
         rdf:about=""><dc:format>image/svg+xml</dc:format><dc:type
           rdf:resource="http://purl.org/dc/dcmitype/StillImage" /><dc:title></dc:title></cc:Work></rdf:RDF></metadata><defs
     id="defs38" /><sodipodi:namedview
     pagecolor="#ffffff"
     bordercolor="#666666"
     borderopacity="1"
     objecttolerance="10"
     gridtolerance="10"
     guidetolerance="10"
     inkscape:pageopacity="0"
     inkscape:pageshadow="2"
     inkscape:window-width="1680"
     inkscape:window-height="987"
     id="namedview36"
     showgrid="false"
     inkscape:zoom="0.4609375"
     inkscape:cx="256"
     inkscape:cy="256"
     inkscape:window-x="-8"
     inkscape:window-y="-8"
     inkscape:window-maximized="1"
     inkscape:current-layer="Warstwa_1" /><style
     type="text/css"
     id="style2">
	.st0{fill:url(#SVGID_1_);}
	.st1{fill:#FFFFFF;}
	.st2{fill:none;stroke:#FFFFFF;stroke-width:15;stroke-linecap:round;stroke-linejoin:round;stroke-miterlimit:10;}
	.st3{fill:none;stroke:#FFFFFF;stroke-width:6;stroke-linecap:round;stroke-linejoin:round;stroke-miterlimit:10;}
	.st4{fill:#FFFFFF;stroke:#FFFFFF;stroke-width:6;stroke-linecap:square;stroke-miterlimit:10;}
	.st5{fill:none;stroke:#FFFFFF;stroke-width:6;stroke-miterlimit:10;}
</style><linearGradient
     id="SVGID_1_"
     gradientUnits="userSpaceOnUse"
     x1="10.8642"
     y1="256"
     x2="505.8642"
     y2="256"><stop
       offset="0"
       style="stop-color:#83CC3F"
       id="stop4" /><stop
       offset="1"
       style="stop-color:#C6DC5E"
       id="stop6" /></linearGradient><circle
     class="st0"
     cx="258.4"
     cy="256"
     r="247.5"
     id="circle9" /><g
     id="g33"
     transform="translate(-143.18644,-592.27119)"><g
       id="g13"><path
         class="st1"
         d="m 373.8,191.3 c 9.4,0 17.1,7.7 17.1,17.1 v 145.8 c 0,9.4 -7.7,17.1 -17.1,17.1 H 143 c -9.4,0 -17.1,-7.7 -17.1,-17.1 V 208.4 c 0,-9.4 7.7,-17.1 17.1,-17.1 h 230.8 m 0,-15 H 143 c -17.7,0 -32.1,14.4 -32.1,32.1 v 145.8 c 0,17.7 14.4,32.1 32.1,32.1 h 230.8 c 17.7,0 32.1,-14.4 32.1,-32.1 V 208.4 c 0,-17.8 -14.4,-32.1 -32.1,-32.1 z"
         id="path11"
         inkscape:connector-curvature="0"
         style="fill:#ffffff" /></g><path
       class="st2"
       d="m 271.2,177.8 c 18.8,0 37.6,0.2 56.4,0.4 0.4,-1 0.6,-2.1 0.6,-3.3 v -22.3 c 0,-5.2 -4.2,-9.4 -9.3,-9.4 H 197.8 c -5.1,0 -9.3,4.2 -9.3,9.4 V 175 c 0,1.1 0.2,2.1 0.5,3.1 27.4,1.3 54.8,-0.3 82.2,-0.3 z"
       id="path15"
       inkscape:connector-curvature="0"
       style="fill:none;stroke:#ffffff;stroke-width:15;stroke-linecap:round;stroke-linejoin:round;stroke-miterlimit:10" /><path
       class="st3"
       d="m 385.9,229.4 c 5.4,0 10.7,-0.1 16.1,-0.2"
       id="path17"
       inkscape:connector-curvature="0"
       style="fill:none;stroke:#ffffff;stroke-width:6;stroke-linecap:round;stroke-linejoin:round;stroke-miterlimit:10" /><path
       class="st3"
       d="m 186.3,229.8 c 48.1,-0.3 96.8,-0.3 144.9,-0.4"
       id="path19"
       inkscape:connector-curvature="0"
       style="fill:none;stroke:#ffffff;stroke-width:6;stroke-linecap:round;stroke-linejoin:round;stroke-miterlimit:10" /><path
       class="st3"
       d="m 113.4,230.1 c 6.9,0.2 13.9,0.2 20.8,0"
       id="path21"
       inkscape:connector-curvature="0"
       style="fill:none;stroke:#ffffff;stroke-width:6;stroke-linecap:round;stroke-linejoin:round;stroke-miterlimit:10" /><g
       id="g27"><rect
         x="242.3"
         y="249.8"
         class="st4"
         width="31.299999"
         height="105"
         id="rect23"
         style="fill:#ffffff;stroke:#ffffff;stroke-width:6;stroke-linecap:square;stroke-miterlimit:10" /><rect
         x="241.8"
         y="250.5"
         transform="rotate(-90,257.71715,302.30155)"
         class="st4"
         width="31.700001"
         height="103.5"
         id="rect25"
         style="fill:#ffffff;stroke:#ffffff;stroke-width:6;stroke-linecap:square;stroke-miterlimit:10" /></g><path
       class="st5"
       d="m 173.1,242.1 h -25.5 c -6.6,0 -12,-5.4 -12,-12 v -0.3 c 0,-6.6 5.4,-12 12,-12 h 25.5 c 6.6,0 12,5.4 12,12 v 0.3 c 0,6.6 -5.4,12 -12,12 z"
       id="path29"
       inkscape:connector-curvature="0"
       style="fill:none;stroke:#ffffff;stroke-width:6;stroke-miterlimit:10" /><path
       class="st5"
       d="m 370.8,241.5 h -25.5 c -6.6,0 -12,-5.4 -12,-12 v -0.3 c 0,-6.6 5.4,-12 12,-12 h 25.5 c 6.6,0 12,5.4 12,12 v 0.3 c 0,6.6 -5.4,12 -12,12 z"
       id="path31"
       inkscape:connector-curvature="0"
       style="fill:none;stroke:#ffffff;stroke-width:6;stroke-miterlimit:10" /></g><path
     d="m 174.90098,318.17248 5.6526,5.6526 -82.53085,82.53084 11.26862,-22.57425 z"
     id="path4"
     inkscape:connector-curvature="0"
     style="color:#000000;fill:#ffffff;stroke-width:0.43551895" /><path
     d="m 186.83419,300.20732 11.68237,11.68236 -20.72722,20.72722 -11.68236,-11.68236 z"
     id="path6"
     inkscape:connector-curvature="0"
     style="color:#000000;fill:#7c7c5b;stroke-width:0.43551895" /><path
     d="m 191.16761,288.33943 19.21946,19.21945 -20.72722,20.72722 -19.21946,-19.21945 z"
     id="path8"
     inkscape:connector-curvature="0"
     style="color:#000000;fill:#ffffff;stroke-width:0.43551895" /><path
     d="M 382.19495,80.487997 398.33703,96.630073 282.60657,212.36053 266.46449,196.21845 Z"
     id="path10"
     inkscape:connector-curvature="0"
     style="color:#000000;fill:#aaaaaa;stroke-width:0.43551895" /><path
     d="m 402.27238,100.217 16.14207,16.14208 -115.73046,115.73046 -16.14207,-16.14208 z"
     id="path12"
     inkscape:connector-curvature="0"
     style="color:#000000;fill:#aaaaaa;stroke-width:0.43551895" /><path
     d="m 398.50949,96.454123 3.7607,3.761147 -115.73045,115.73045 -3.7607,-3.76114 z"
     id="path14"
     inkscape:connector-curvature="0"
     style="color:#000000;fill:#868686;stroke-width:0.43551895" /><path
     d="m 372.43932,64.26056 62.02662,62.02661 -4.67922,4.67922 -62.02661,-62.026614 z"
     id="path16"
     inkscape:connector-curvature="0"
     style="color:#000000;fill:#868686;stroke-width:0.43551895" /><path
     d="m 287.23874,164.53445 46.9533,46.9533 -120.29905,120.29905 -46.9533,-46.9533 z"
     id="path18"
     inkscape:connector-curvature="0"
     style="color:#000000;fill:#ffffff;stroke-width:0.43551895" /><path
     d="m 276.20705,139.1132 83.40624,83.40624 -14.38955,14.38955 -83.40624,-83.40624 z"
     id="path20"
     inkscape:connector-curvature="0"
     style="color:#000000;fill:#eaeaea;stroke-width:0.43551895" /><path
     d="m 236.49208,215.28983 -69.55239,69.55238 46.9446,46.94459 69.55238,-69.55238 z"
     id="path22"
     inkscape:connector-curvature="0"
     style="color:#000000;fill:#ff6666;stroke-width:0.43551895" /><g
     transform="matrix(0.17942075,0.17942075,-0.49479311,0.49479311,396.35367,-170.27076)"
     id="g50"
     style="fill:#0d0d0d;fill-opacity:0.2"><path
       d="m 628.94,490.99 h 88.401 v 3.9414 H 628.94 Z"
       id="path24"
       inkscape:connector-curvature="0"
       style="color:#000000" /><path
       d="m 628.94,474.1 h 88.401 v 3.9414 H 628.94 Z"
       id="path26"
       inkscape:connector-curvature="0"
       style="color:#000000" /><path
       d="m 628.94,507.88 h 88.401 v 3.9414 H 628.94 Z"
       id="path28"
       inkscape:connector-curvature="0"
       style="color:#000000" /><path
       d="m 628.94,524.77 h 88.401 v 3.9414 H 628.94 Z"
       id="path30"
       inkscape:connector-curvature="0"
       style="color:#000000" /><path
       d="m 628.94,541.67 h 88.401 v 3.9414 H 628.94 Z"
       id="path32"
       inkscape:connector-curvature="0"
       style="color:#000000" /><path
       d="m 628.94,558.56 h 88.401 v 3.9414 H 628.94 Z"
       id="path34"
       inkscape:connector-curvature="0"
       style="color:#000000" /><path
       d="m 628.94,575.45 h 88.401 v 3.9414 H 628.94 Z"
       id="path36"
       inkscape:connector-curvature="0"
       style="color:#000000" /><path
       d="m 628.94,592.34 h 88.401 v 3.9414 H 628.94 Z"
       id="path38"
       inkscape:connector-curvature="0"
       style="color:#000000" /><path
       d="m 628.94,609.23 h 88.401 v 3.9414 H 628.94 Z"
       id="path40"
       inkscape:connector-curvature="0"
       style="color:#000000" /><path
       d="m 628.94,626.13 h 88.401 v 3.9414 H 628.94 Z"
       id="path42"
       inkscape:connector-curvature="0"
       style="color:#000000" /><path
       d="m 628.94,643.02 h 88.401 v 3.9414 H 628.94 Z"
       id="path44"
       inkscape:connector-curvature="0"
       style="color:#000000" /><path
       d="m 628.94,659.91 h 88.401 v 3.9414 H 628.94 Z"
       id="path46"
       inkscape:connector-curvature="0"
       style="color:#000000" /><path
       d="m 628.94,676.8 h 88.401 v 3.9414 H 628.94 Z"
       id="path48"
       inkscape:connector-curvature="0"
       style="color:#000000" /></g></svg>