<?xml version="1.0" encoding="utf-8"?>
<!-- Generator: Adobe Illustrator 19.2.1, SVG Export Plug-In . SVG Version: 6.00 Build 0)  -->
<svg version="1.1" id="Warstwa_1" xmlns="http://www.w3.org/2000/svg" xmlns:xlink="http://www.w3.org/1999/xlink" x="0px" y="0px"
	 viewBox="0 0 820 473" style="enable-background:new 0 0 820 473;" xml:space="preserve">
<style type="text/css">
	.st0{fill:#FEFEFE;}
	.st1{fill:#C0E36F;}
	.st2{fill:#3C2D14;}
	.st3{fill:#C1E36F;}
	.st4{fill:#3E2E14;}
	.st5{fill:#3E3017;}
	.st6{fill:#C4DE86;}
	.st7{fill:#FCFDFA;}
	.st8{fill:#3C2E14;}
	.st9{fill:#E9F5B9;}
	.st10{fill:#C2E175;}
	.st11{fill:#F8F9F5;}
	.st12{fill:#FCFDFB;}
	.st13{fill:#C1E271;}
	.st14{fill:#3D2E16;}
	.st15{fill:#3D310B;}
	.st16{fill:#3C3312;}
	.st17{fill:#F6F5F0;}
</style>
<g>
	<g>
		<path class="st0" d="M349.9,541.7c-762.6,0-1525.2,0-2287.8,0.2c-8.9,0-11-2-11-11c0.3-196,0.3-392.1,0-588.1c0-8,1.3-9.9,9.7-9.9
			c1526.8,0.2,3053.5,0.2,4580.3,0c8.6,0,10.4,1.7,10.4,10.4c-0.3,195.6-0.3,391.3,0,586.9c0,9.5-1.7,11.7-11.6,11.7
			C1876.7,541.6,1113.3,541.7,349.9,541.7z"/>
		<path class="st1" d="M572.1,74.4c27.1,12.1,50.3,30.3,72.9,49c50.4,41.5,94.8,88.5,128.7,144.8c7.4,12.3,14.1,25.2,18,39
			c9,31.7-3.8,57.4-25.8,78.5c-39.4,37.9-89,51.8-141.8,52.6c-91.4,1.4-182.7,0.7-274.1,0.4c-22.4-0.1-44.5,1.7-66.3,6.3
			c-2.7,0.6-5.8,1.9-7.7-0.8c-1.8-2.6,0-5.5,1.4-7.8c6.9-11.7,18.6-16.9,30.6-21.5c9.6-3.6,19.6-6.3,29.9-7.7
			c2.9-0.4,5.4-1.4,6.9-4.1c0.9-1,1.9-1.6,3.2-1.8c25-1.2,50.9,1,72.2-16.6c6.1,0.9,8.3,5.1,9,10.5c-1.2,4.5-5.2,6.2-8.6,8.3
			c7-3,15.2,0.3,22.1-3.9c1.3-0.3,2.7-0.2,4,0c3.9,0.8,7.8,1.7,11.8,1.7c67,0.9,133.9,4.2,200.9,2.2c21.4-0.6,43-2.2,63.8-8.6
			c3.9-1.1,7.6-0.7,11.3,0.8c4.8,2,1-3.1,2.9-3.6c14-8.8,24.8-19.5,27.5-37c2-13.6-3-25.2-8.3-36.7c-11.4-24.8-27.2-46.9-43.9-68.2
			c-30.5-38.9-61.9-77-97.8-111.1c-24-22.8-49.9-43.3-76.5-62.9c-3.7-4.7-8.1-8.5-14.2-10.1c-1-0.7-1.9-1.5-2.6-2.5
			c-2-11.6,4.4-11.1,12.3-8.5l0,0C544.5,65.3,560,66.4,572.1,74.4z"/>
		<path class="st2" d="M346.3,402.9l-0.9-0.3c0,0-0.8,0.4-0.8,0.4c-6.7-2.1-13.6-5.7-15.7-11.9c-4.2-12.6-14.1-14.6-24.7-18
			c-21.6-6.9-36.2-22.4-46.6-42.2c-2-3.8-3.6-8.8-9.3-7.2c-5.7,1.5-2.8,6.6-3.1,10.1c-0.5,6.3-0.2,12.8-0.2,19.1
			c0,20.9-0.7,21.4-22.5,17c12.9-13.8,12.3-89.4-0.8-99.8c17.4-1,35.3-5.4,51.9,1.8c17.5,7.6,19.4,31.4,3.6,43.7
			c-8.3,6.4-7.4,10.9-2.4,18.1c11.6,16.7,26.4,29.3,45.6,39.3c0-32.7,0-64,0-95.2c0-3.9-2-6.4-5-8.9c-3.8-3.1,0.2-4.2,2.3-5.6
			c2-2.1,4.7-2.5,7.4-2.8c17.4,0.1,18.5,0.8,24.9,16.3c8.3,20.2,16.9,40.4,26.7,62.2c4.7-8.2,7.1-15.7,9.8-22.9
			c5.4-14.6,11.1-29,17.2-43.3c4.9-11.3,20.6-16.5,31.2-11c3.5,1.8,4.8,4.6,3.2,7.8c-7,14.4-3.9,29.8-4.3,44.7
			c-0.4,18.3-0.1,36.6-0.1,55c0.4,7.1,3.2,13.5,5.6,20.1c1.1,3.7,4.7,6.6,3.5,11.1c-0.2,0.7-0.3,1.4-0.4,2.1
			c-6.6,1.2-12.5,0.7-15.1-6.9c-2.2-3.3-4.3-6.5-6.5-9.8c-5.5-3.9-6.7-10.1-7.1-15.9c-2-26.2-1.1-52.4-0.7-75.1
			c-8,19.7-18.3,42.4-28.5,65c-1.7,3.8-3.3,9-8.5,9c-5.1,0.1-6.8-5-8.8-8.7c-11.7-21.8-21.2-44.6-32-66.7c0.3,20,0.2,40.2,0.1,60.4
			c-0.1,14.5,1.1,28.7,9.7,41.2C346.6,397.4,348.2,400,346.3,402.9z"/>
		<path class="st3" d="M325.2,263.4c-2.4,0-4.9,0-7.3-0.1c-7.7-18.1-9.5-37.7-12.9-56.8c-5-28.2-9.9-56.6-8.5-85.4
			c1.3-25.9,6.7-50.7,26.4-69.7c6.8-6.6,14.4-12.5,23.7-15.4c10.7,0.6,12,2.3,11.2,14.5c-23,24.9-24.4,54.8-20.7,86.3
			c3,26.1,6.4,52.2,11.6,78c1.3,6.5,0.8,12.8-2.5,18.6C340.2,244.1,335.4,255.7,325.2,263.4z"/>
		<path class="st4" d="M15.3,367.2c11.4-1.6,13.2-8.6,13.1-17.7c-0.2-21.9-0.3-43.8,0-65.8c0.1-9.3-2-15.9-13.1-15.4
			c0.7-3.6,2.8-4.5,5.1-4.4c18.7,0.4,37.5-1.7,56.1,1.3c27.9,4.4,42.4,21.4,43.4,49.7c0.9,27.2-13.7,47.4-40.1,53
			c-20,4.3-40.5,2-60.8,1.7C17.9,369.5,16.6,368,15.3,367.2z"/>
		<path class="st5" d="M209.2,353.3c-4.8,10.6-10.6,18.5-24.4,17.4c-15.9-1.2-31.9-0.2-47.9-0.2c-4.1,0-9.1,1.3-11.4-5.3
			c11.7-0.6,13.6-7.8,13.3-17.7c-0.5-19.1-0.3-38.3-0.1-57.4c0.1-9-0.3-17.2-12.7-16.8c2.8-6.1,7.2-4.7,10.9-4.7
			c18.8-0.1,37.5,0.4,56.2-0.2c13.2-0.5,10.5,6.1,7.1,15.8c-6-14.3-17.3-9.9-26.8-10c-20.3-0.4-20.3-0.1-20.4,19.7
			c0,1.6,0.2,3.2,0,4.8c-1.9,11.7,1.5,18.1,14.8,15.7c4.1-0.7,8.8-0.9,11.2,4.2c-0.8,0.4-1.5,0.9-2.2,1c-7.7,1.3-20.1-3.7-22.3,2.6
			c-4,11.6-2.1,25.2-0.6,37.8c0.5,4.7,4.8,4.5,8.5,4.6C179,365.2,195.4,365.6,209.2,353.3z"/>
		<path class="st6" d="M356.1,50.2c0.6-7.2-1.3-12.8-9.6-14c20.7-10.9,43.3-12.3,66-11.6c39.6,1.3,77.4,11.6,114,26.3
			c2.5,1,4.6,2.9,6.9,4.4c-6.3,0.3-14.1-0.9-9.9,9.9c-5.6,2.9-10-0.8-14.5-2.9c-32.6-14.9-66-25.3-102.6-23.1
			c-14.6,0.9-28.5,2-41.4,9.3C362.4,50,359.5,51.9,356.1,50.2z"/>
		<path class="st6" d="M572.1,74.4c-11-3.5-22.1-6.8-33-10.6c-3.4-1.2-5.6-4.4-5.6-8.5C547.3,59.7,560.8,64.8,572.1,74.4z"/>
		<path class="st0" d="M356.1,50.2C383.8,30.6,415,34.5,445.6,38c27.9,3.2,52.6,16.3,78,27.2c0,0,0.1-0.1,0.1-0.1
			c5.2,2.5,10.6,4.6,14.6,9.2c24.7,15.1,46.9,33.6,67.8,53.2c52.4,49.2,98.8,103.7,138.3,163.8c8.7,13.3,16.2,27.2,21,42.6
			c7.8,25.5-2.7,49.1-27.4,59.4c-6.7-1.4-7.8-7.5-10.2-12.3c-16.2-32.4-33.1-64.5-47.9-97.7c-1.5-3.4-2.1-8.9-6.8-8.6
			c-3.5,0.2-4.8,5-6.4,8.1c-12.7,24.4-25.3,48.8-38.3,73c-5,9.4-0.6,10.9,7.7,10.5c-5-3.2-3.4-7.3-2-11.1
			c3.7-10.6,8.8-20.5,14.2-30.3c3.1-5.7,8-8.4,14.5-9.1c23.9-2.4,26.5-1,37.2,20.1c8.5,16.7,16.1,33.8,25.5,50
			c1.6,2.8,3.3,5.5,2.4,9c-11,8.4-24.5,8.3-37.2,9.7c-43.3,4.8-86.8,2.8-130.2,2.5c-35.4-0.2-70.9-1.6-106.3-2.2
			c-4.7-0.1-8.4-1-11.4-4.6c-2.3-3-5.1-5.6-5.2-9.7c10.9-13,24.3-23.7,34.4-37.5c1.2-1.6,3.3-2.2,5.1-0.3c2.4,3.4,1.2,7.7,2.9,12.1
			c7.1-3.8,9.3-9.8,9.6-17.1c0.4-10.6-1-21.3,1.2-31.9c4.4-12.3,8.8-24.6,12.3-37.2c1-3.7,1.4-8.1,6.5-9c7.1,2.7,5.4,9.1,5.5,14.3
			c0.5,22.3-0.4,44.6,0.9,66.9c-0.3-19.5-0.1-38.9,0-58.4c0-4.3-0.9-10,3.7-11.8c5.4-2,8.3,3.6,11,7.2c14.9,19.7,30.3,39,45.4,58.6
			c3.8,5,7.5,10.2,12.3,14.6c3.6-14.9,2.4-85.9-1.5-93.6c4.9,22.1,2.2,44.4,2,66.7c0,2.3-0.9,5.2-3.6,5.7c-3.5,0.6-5.8-2.3-7.8-4.6
			c-11.9-13.9-22.2-29.2-33.9-43.3c-3-3.7-6.1-7.4-8.7-11.4c-5.8-8.8-13.4-14.5-24.1-15.5c-2.6-1.4-2.7-3.9-2.2-6.3
			c7.7-35.5,15.8-70.8,37.9-101c4.4-6.1,11.1-9.9,14.9-16.8c-14.8,4.9-26.6,14.2-38,24.5c-21.8,19.9-31.8,46.2-40.6,73.2
			c-3.7,5.2-7.1,10.5-5.1,17.3c-0.3,4.5-3,7.6-6.1,10.5c-1.8,2.7,1.3,4.2,1.5,6.4c-5.4,31.5-14.4,61.7-30.1,89.6
			c-2.3,4.1-4,11.2-11.9,8.5c-0.1-29.5-0.2-59-0.4-88.5c0-3.7,0-7.8,2.6-10.2c8.6-8,3.7-8.4-4.2-9.3c-13-1.4-20.6,2-25.1,15.9
			c-7.3,23-17.3,45.1-26.9,69.5c-10.6-24.9-21.1-47.5-29.8-70.7c-4.2-11.3-9.9-17.1-22.1-14.9c0.3-0.7,0.5-1.6,1-2.2
			c24.2-25.7,18.4-55.2,12.6-85.8c-5.3-28-9.7-56.6-4.6-85.4C337,74.1,343.4,60.5,356.1,50.2z"/>
		<path class="st7" d="M346.3,402.9c-13.7-16.1-14-35.4-13.8-55c0.2-20.6,0-41.3,2.1-62.6c13.5,28,27.1,55.9,41.6,85.9
			c13.2-29.8,25.6-57.7,38-85.6c0.6,0.1,1.3,0.2,1.9,0.2c0,21.2,0.2,42.4-0.1,63.6c-0.2,12.5,1,24.6,5,36.4
			C399.7,407.5,372.7,403.8,346.3,402.9z"/>
		<path class="st8" d="M727.9,395.1c-13.5-20.2-22.9-42.7-33.7-64.4c-4.1-8.2-8.8-10.5-17.9-11.5c-16.9-1.8-27,3.4-31.7,19.9
			c-1.5,5.3-4.5,10.2-7.2,15c-2.9,5.3-4.6,10.2,4.4,15c-9.3,0-15.5,0-23.5,0c18.5-35.3,36.4-69.5,55.1-105.3
			c19.4,39.9,38,78.1,56.7,116.3c2.2,4.6,5.2,8.8,7.9,13.2c1.6,2.1,3.2,4.1,5,6.4C736.4,402.1,732.5,397.5,727.9,395.1z"/>
		<path class="st9" d="M427.4,395.7c5,2.3,10.1,4.6,15.1,6.9c-7.8,5.4-16.1,1.3-25,2.3C419.8,399.4,424.8,398.8,427.4,395.7z"/>
		<path class="st6" d="M538.3,74.2c-5.3-2.4-11-4.1-14.6-9.2C531.2,64,535.9,67.2,538.3,74.2z"/>
		<path class="st10" d="M431,371.4c12.1-8.4,16-22,21.1-34.6c8.5-21.3,14.6-43.3,19-65.8c4.9-2.4,7.2,1,7.4,4.5
			c1.5,25.2,3.5,50.4-1.2,75.5c-0.1,0.6-1.1,1.1-1.6,1.7c-11.6,13.7-21.8,29-38.1,38C433.3,385.1,432.2,378.2,431,371.4z"/>
		<path class="st11" d="M244.9,296.5c0-2.4-0.4-4.8,0.1-7.1c0.9-4.7-3.3-11.1,3.1-13.8c7.3-3,14.9-1.9,21.5,2.7
			c7.9,5.6,10.5,17.6,6.1,26.8c-4,8.4-19.2,15.6-27.3,13.4c-3.9-1.1-3.3-3.9-3.4-6.5C244.9,306.8,245,301.7,244.9,296.5
			C245,296.5,244.9,296.5,244.9,296.5z"/>
		<path class="st12" d="M43.6,316.3c0-12.3,0.1-24.7-0.1-37c-0.1-5,0.9-8,6.9-8.8c17.4-2.2,33,0.8,43.1,16.2
			c11.8,18.1,12.2,37.7,2.4,56.6c-8.4,16.2-23.1,22-40.9,20.8c-7.9-0.5-12.3-2.8-11.6-12.1C44.3,340.2,43.6,328.2,43.6,316.3z"/>
		<path class="st13" d="M469.4,265.3c3.7-1.9,5.1-5.6,7.1-8.9c11.6-6.1,11.6-6.1,4.3-16.9c9.1-49.4,56.6-104.5,87.5-101.5
			c1.3,2.9-0.8,4.6-2.6,6c-27.9,21-37.6,52.1-46.5,83.6c-3.4,11.8-6.2,23.8-9.3,35.7c-4.9,2.3-0.8,4.6,0,7
			c-6.5,15-8.8,31.6-16.8,46.2c-6.4-7.1-3.6-15.8-3.8-23.8c-0.4-18.7-0.1-18.7-17.5-24.8C470.6,267.3,470,266.3,469.4,265.3z"/>
		<path class="st14" d="M509.9,270.2c-1.5-3.8-5.9-0.8-7.9-3.3c1.3-4.2,5.2-2.5,7.9-3.6c11.9-1.5,19.4,3.8,26.4,13.5
			c15.4,21.6,32.2,42.2,50.6,65.9c0-24.4,0-45.7,0-66.9c0-6.7-5-7.1-10.2-8.1c4.2-6.3,10.4-4.5,15-3.4c4.1,1,2,6.2,2,9.5
			c0.1,32.2,0.1,64.5-2.3,98.1c-23.5-30.2-47-60.4-71.7-92.2c0,27.5,0,53.3,0,78.8c-6.3-2.8-8.4-8.2-8.3-15.8
			c0.4-20.3,0.2-40.7,0-61C511.4,277.9,512.9,273.7,509.9,270.2z"/>
		<path class="st15" d="M469.4,265.3c23.3,0.2,23.3,0.2,23.4,23.7c0,9.1,0.2,18.3,0.4,27.4c-0.1,9.1-0.3,18.2-0.4,27.3
			c-0.1,17,0,17-16.1,29.1c-0.3-7-0.6-13.5-0.9-20c0.1-25,0.3-50,0.4-74.9c0-3.3,1.1-7.8-5-6.8c-2-1.4-5.4,1.4-6.4-1.7
			C464.5,268.5,467.7,266.6,469.4,265.3z"/>
		<path class="st16" d="M480.7,239.4c6.2,0.9,10.7,3.8,9.6,10.7c-1.4,8.2-7.9,7.2-13.8,6.3C471.6,249.1,472.3,243.3,480.7,239.4z"/>
		<path class="st17" d="M680.7,309.3c-7.8,0-13.8,0-20.3,0c1.3-7.6,5.9-13.2,9.3-20.8C675.3,294.6,676.8,301.5,680.7,309.3z"/>
	</g>
</g>
</svg>
